<svg xmlns="http://www.w3.org/2000/svg" width="136" height="68" viewBox="0 0 136 68">
  <rect width="136" height="68" rx="8" fill="#0d1117"/>
  <g transform="translate(20,18)">
    <circle cx="16" cy="16" r="14" fill="#10a37f" opacity="0.15"/>
    <path d="M16 4C16 4 22 8 24 16C22 24 16 28 16 28C16 28 10 24 8 16C10 8 16 4 16 4Z" fill="#10a37f" opacity="0.8"/>
    <path d="M4 16C4 16 8 10 16 8C24 10 28 16 28 16C28 16 24 22 16 24C8 22 4 16 4 16Z" fill="#10a37f" opacity="0.5"/>
  </g>
  <text x="56" y="32" font-family="Arial,sans-serif" font-size="11" font-weight="bold" fill="#10a37f">ChatGPT</text>
  <text x="56" y="46" font-family="Arial,sans-serif" font-size="9" fill="rgba(255,255,255,0.5)">OpenAI</text>
</svg>
